<?xml version="1.0" standalone="no"?>
<!DOCTYPE svg PUBLIC "-//W3C//DTD SVG 20010904//EN"
 "http://www.w3.org/TR/2001/REC-SVG-20010904/DTD/svg10.dtd">
<svg version="1.0" xmlns="http://www.w3.org/2000/svg"
 width="514.000000pt" height="360.000000pt" viewBox="0 0 514.000000 360.000000"
 preserveAspectRatio="xMidYMid meet">

<g transform="translate(0.000000,360.000000) scale(0.100000,-0.100000)"
fill="#000000" stroke="none">
<path d="M0 1800 l0 -1800 2570 0 2570 0 0 1800 0 1800 -2570 0 -2570 0 0
-1800z m2373 525 c433 0 567 -3 567 -12 0 -6 -10 -13 -22 -15 -13 -2 -24 -11
-26 -20 -2 -9 23 -62 55 -117 53 -93 60 -101 83 -95 58 14 198 34 242 34 46 0
47 0 79 57 41 72 46 134 11 142 -13 3 -23 11 -23 16 1 6 62 10 162 10 158 0
212 -7 153 -20 -54 -12 -85 -28 -116 -58 -31 -32 -98 -126 -98 -139 0 -5 12
-8 28 -8 109 0 349 -68 494 -140 72 -36 308 -186 308 -195 0 -2 -55 23 -122
55 -240 116 -468 173 -693 173 -245 -1 -443 -50 -890 -221 -382 -146 -579
-194 -810 -194 -261 -1 -494 72 -724 227 -176 117 -183 132 -26 55 267 -130
407 -165 670 -165 262 0 385 30 828 199 105 40 222 83 260 95 37 13 67 25 67
28 0 12 -130 201 -159 231 -33 33 -68 52 -100 52 -12 0 -59 -63 -145 -195
-126 -192 -128 -194 -179 -213 -79 -30 -219 -73 -223 -69 -2 2 59 96 137 210
l140 207 -207 0 c-129 0 -221 -4 -246 -12 -45 -13 -96 -66 -105 -109 -8 -40
-33 -38 -33 4 0 37 26 193 35 207 4 6 18 7 33 3 15 -5 282 -8 595 -8z m977
-542 c18 -6 5 -9 -50 -13 -69 -5 -75 -7 -81 -30 -12 -43 -10 -377 2 -403 14
-32 49 -47 104 -47 25 0 45 -4 45 -10 0 -6 -85 -10 -235 -10 -150 0 -235 4
-235 10 0 6 16 10 35 10 49 0 72 27 80 93 8 63 3 332 -6 342 -11 10 -204 -60
-424 -153 -115 -49 -254 -104 -307 -121 -99 -31 -245 -61 -302 -61 -21 0 -36
-7 -44 -21 l-13 -21 238 4 c284 4 300 8 346 99 40 78 51 76 44 -7 -8 -100 -26
-163 -50 -175 -29 -16 -827 -1 -827 15 0 7 14 34 31 60 16 27 27 52 22 56 -4
5 -28 13 -53 18 -41 9 -38 10 50 11 216 3 397 43 635 141 83 34 205 84 272
111 127 52 272 93 383 109 71 10 300 5 340 -7z"/>
</g>
</svg>
